<svg xmlns="http://www.w3.org/2000/svg" width="247" height="31" fill="none"><path fill="#C8CACC" d="M122.702 26.541h-8.299V4.352h8.299v22.19Zm-7.489-.81h6.679V5.163h-6.679v20.568Zm19.038.81h-8.133V4.352h16.992a10.194 10.194 0 0 1 6.831 1.926 7.463 7.463 0 0 1 2.397 6.188 7.88 7.88 0 0 1-1.765 5.47c-1.486 1.706-3.96 2.585-7.351 2.616-.855.022-7.256 0-8.966 0l-.005 5.99Zm-7.327-.81h6.516v-5.998h.407c.083 0 8.394.026 9.355 0 3.16-.028 5.431-.81 6.758-2.34a7.116 7.116 0 0 0 1.557-4.929 6.727 6.727 0 0 0-2.108-5.565 9.445 9.445 0 0 0-6.311-1.738h-16.17l-.004 20.57Zm14.464-10.164h-8.003v-6.04h8.057a3.42 3.42 0 0 1 3.08 1.178c.338.563.497 1.214.457 1.87a3.445 3.445 0 0 1-.381 1.753 3.509 3.509 0 0 1-3.21 1.232v.007Zm-7.192-.81h7.192c1.33 0 2.153-.278 2.518-.848.201-.415.292-.875.264-1.335a2.505 2.505 0 0 0-.302-1.39l-.009-.015c-.386-.567-1.153-.832-2.417-.832h-7.246v4.42Zm32.935 12.112c-7.279 0-11.623-1.808-13.278-5.525a9.603 9.603 0 0 1-.548-2.227l-.072-.467h8.66l.057.34c.066.346.214.672.428.95.342.414 1.483 1.108 5.27 1.108 4.552 0 4.552-.8 4.552-1.23 0-.724-.527-.972-4.239-1.367l-.706-.067c-1.397-.131-3.164-.298-3.971-.368-6.809-.616-9.848-2.731-9.848-6.857 0-4.333 5.173-7.132 13.179-7.132 6.531 0 10.74 1.721 12.505 5.12.418.791.7 1.647.832 2.533l.056.455h-8.669l-.036-.366a1.378 1.378 0 0 0-.35-.769c-.324-.434-1.349-1.152-4.529-1.152-3.905 0-4.443.5-4.443 1.037 0 .718 1.233.973 5.187 1.396 1.648.135 4.299.407 5.207.517 5.707.62 8.254 2.683 8.254 6.693.002 3.364-2.341 7.378-13.498 7.378ZM154.18 19.46a7.35 7.35 0 0 0 .417 1.562c1.507 3.387 5.608 5.035 12.534 5.035 5.79 0 12.694-1.134 12.694-6.567 0-3.554-2.253-5.315-7.536-5.887a189.38 189.38 0 0 0-5.188-.517c-4.214-.457-5.928-.7-5.928-2.202 0-1.553 1.847-1.848 5.254-1.848 2.693 0 4.432.487 5.17 1.467.201.242.353.52.447.82h7.026a7.284 7.284 0 0 0-.665-1.8c-1.621-3.111-5.581-4.687-11.787-4.687-7.513 0-12.368 2.482-12.368 6.322 0 3.664 2.725 5.473 9.108 6.05.811.07 2.576.237 3.977.37l.71.066c3.448.363 4.968.59 4.968 2.174 0 1.705-1.966 2.04-5.362 2.04-3.142 0-5.126-.473-5.893-1.401a3.018 3.018 0 0 1-.525-.997h-7.053Zm41.849 7.38c-8.462 0-13.13-3.422-13.13-9.637V4.352h8.189v12.852c0 2.132 1.908 3.354 5.233 3.354 3.177 0 5.15-1.276 5.15-3.326V4.352h8.105v13.533c.008 5.691-4.934 8.956-13.552 8.956h.005Zm-12.32-21.678v12.041c0 7.68 7.713 8.827 12.32 8.827 4.763 0 12.75-1.059 12.75-8.146V5.163h-6.485v12.069c0 2.512-2.34 4.137-5.96 4.137-3.784 0-6.043-1.557-6.043-4.165V5.163h-6.582Zm60.214 21.378h-7.729V16.523l-4.383 10.018h-6.742l-4.338-9.998v9.998h-7.757V4.352h10.203l5.301 12.235 5.557-12.235h9.898l-.01 22.19Zm-6.919-.81h6.109V5.163h-8.563l-6.098 13.42-5.813-13.42h-8.861v20.568h6.136V12.642l5.673 13.094h5.674l5.734-13.074.009 13.069ZM9.814 4.758H2.432v21.378H22.83v-5.691H9.814V4.758Zm27.918-.487c-9.424 0-14.38 4.466-14.38 11.023 0 7.409 5.203 11.166 14.38 11.166 10.102 0 14.35-4.357 14.35-11.166 0-6.913-4.793-11.026-14.35-11.026v.003Zm-.028 5.556c.642-.003 1.283.034 1.92.112L31.37 18.19a6.553 6.553 0 0 1-.558-2.807c0-3.354 1.69-5.56 6.891-5.56v.003Zm.028 11.165a15.324 15.324 0 0 1-1.85-.103l8.267-8.268c.376.87.556 1.81.527 2.756 0 3.263-1.556 5.612-6.944 5.612v.003Zm28.978-2.917h7.598a3.472 3.472 0 0 1-.681 1.442 7.871 7.871 0 0 1-5.61 1.743 7.15 7.15 0 0 1-5.637-1.879 6.052 6.052 0 0 1-1.036-3.84 5.911 5.911 0 0 1 1.117-4.002c1.062-1.2 2.86-1.717 5.502-1.717a7.499 7.499 0 0 1 4.766 1.225c.443.352.774.825.953 1.362h7.046a7.26 7.26 0 0 0-.627-2.56c-1.687-3.431-5.61-5.474-12.281-5.474-5.802 0-9.695 1.77-11.847 4.44a10.649 10.649 0 0 0-2.07 6.673 11.237 11.237 0 0 0 2.023 6.865c2.126 2.755 5.91 4.11 10.46 4.11a13.07 13.07 0 0 0 8.495-2.395l.192 2.068h5.853V13.473H66.71v4.602ZM97.54 4.267c-9.421 0-14.378 4.466-14.378 11.023 0 7.408 5.2 11.166 14.378 11.166 10.104 0 14.353-4.358 14.353-11.166 0-6.91-4.793-11.022-14.353-11.022v-.001Zm-.026 5.555c.625-.002 1.25.034 1.87.107l-8.22 8.225a6.577 6.577 0 0 1-.54-2.77c-.007-3.354 1.689-5.562 6.89-5.562Zm.026 11.166a15.3 15.3 0 0 1-1.898-.11l8.295-8.297c.39.88.577 1.837.546 2.8.004 3.26-1.546 5.608-6.943 5.608v-.001Z"/></svg>