<svg xmlns="http://www.w3.org/2000/svg" width="201" height="44" fill="none"><path fill="#C8CACC" d="M58.647 29.367c0 .96-.198 1.699-.594 2.214-.386.516-1.031.774-1.935.774-.853 0-1.457-.258-1.813-.774-.345-.515-.518-1.253-.518-2.214v-16.03c0-.96.173-1.698.518-2.214.356-.515.96-.773 1.813-.773.904 0 1.549.258 1.935.773.396.516.594 1.254.594 2.215v16.03Zm1.476-4.66a8.81 8.81 0 0 1 .518-3.033c.355-.96.884-1.8 1.584-2.517.711-.718 1.595-1.29 2.651-1.714 1.067-.425 2.316-.637 3.748-.637 1.371 0 2.585.197 3.64.591 1.057.395 1.946.946 2.667 1.653a6.899 6.899 0 0 1 1.645 2.503c.376.96.564 2.012.564 3.154a8.545 8.545 0 0 1-.533 3.018 7.032 7.032 0 0 1-1.6 2.487c-.71.708-1.6 1.274-2.666 1.699-1.066.414-2.305.621-3.717.621-1.391 0-2.62-.197-3.687-.591-1.056-.404-1.945-.955-2.666-1.653a7.026 7.026 0 0 1-1.615-2.487 8.843 8.843 0 0 1-.533-3.094Zm5.073 0c0 .667.061 1.304.183 1.91.122.597.315 1.123.579 1.578.274.455.63.82 1.066 1.092.437.263.97.394 1.6.394.579 0 1.082-.12 1.508-.364a2.926 2.926 0 0 0 1.066-1.016c.285-.434.498-.955.64-1.562a9.048 9.048 0 0 0 .214-2.032c0-.667-.067-1.3-.198-1.896a4.948 4.948 0 0 0-.595-1.592 3.063 3.063 0 0 0-1.066-1.092c-.427-.273-.95-.41-1.57-.41-.619 0-1.147.132-1.584.395a3.102 3.102 0 0 0-1.066 1.077 4.951 4.951 0 0 0-.594 1.592 9.763 9.763 0 0 0-.183 1.926Zm24.454 4.72a4.744 4.744 0 0 1-1.005 1.289 5.41 5.41 0 0 1-1.295.88 6.61 6.61 0 0 1-1.508.5 8.652 8.652 0 0 1-1.63.152c-.935 0-1.788-.167-2.56-.5a5.639 5.639 0 0 1-1.995-1.441c-.549-.637-.975-1.416-1.28-2.336-.305-.92-.457-1.971-.457-3.154 0-1.113.142-2.154.427-3.125.284-.97.695-1.814 1.234-2.532a6.01 6.01 0 0 1 2.01-1.699c.793-.414 1.697-.621 2.712-.621 1.158 0 2.184.222 3.078.667.903.445 1.68 1.173 2.33 2.184v-.394c0-.729.198-1.274.594-1.639.407-.373.965-.56 1.676-.56.427 0 .787.07 1.082.212.294.131.528.333.7.606.173.263.295.592.366.986.082.384.122.824.122 1.32v10.16c0 1.234-.157 2.336-.472 3.306-.305.971-.782 1.79-1.432 2.457-.65.667-1.483 1.173-2.498 1.517-1.016.354-2.225.53-3.626.53-.985 0-1.859-.045-2.62-.136a10.155 10.155 0 0 1-1.95-.379c-.549-.192-.965-.404-1.25-.637a1.136 1.136 0 0 1-.411-.91 2 2 0 0 1 .091-.607c.061-.192.153-.364.274-.515.133-.142.3-.258.503-.349.213-.08.472-.121.777-.121.325 0 .65.02.975.06l1.036.122c.366.05.747.096 1.143.136.406.04.843.06 1.31.06.558 0 1.056-.055 1.493-.166a2.514 2.514 0 0 0 1.112-.592c.305-.282.538-.662.7-1.137.163-.465.244-1.061.244-1.79v-1.804Zm0-4.716c0-.739-.055-1.41-.167-2.017-.102-.607-.28-1.123-.533-1.547a2.617 2.617 0 0 0-1.021-1.001c-.427-.243-.96-.364-1.6-.364-.63 0-1.152.126-1.569.379a2.776 2.776 0 0 0-.975 1.046 4.97 4.97 0 0 0-.518 1.562 12.624 12.624 0 0 0-.137 1.911c0 1.547.274 2.71.823 3.488.548.779 1.346 1.168 2.392 1.168a3.48 3.48 0 0 0 1.325-.273c.406-.182.757-.46 1.051-.834.295-.374.523-.85.686-1.426.162-.576.243-1.274.243-2.092Zm5.997-.004c0-1.072.172-2.083.517-3.033.356-.96.884-1.8 1.585-2.517.71-.718 1.594-1.29 2.651-1.714 1.066-.425 2.315-.637 3.747-.637 1.371 0 2.585.197 3.641.591 1.056.395 1.945.946 2.666 1.653a6.904 6.904 0 0 1 1.646 2.503c.375.96.563 2.012.563 3.154a8.531 8.531 0 0 1-.533 3.018 7.026 7.026 0 0 1-1.6 2.487c-.711.708-1.599 1.274-2.666 1.699-1.066.414-2.305.621-3.717.621-1.391 0-2.62-.197-3.686-.591-1.057-.404-1.945-.955-2.666-1.653A7.029 7.029 0 0 1 96.18 27.8a8.845 8.845 0 0 1-.534-3.094Zm5.072 0c0 .667.061 1.304.183 1.91.122.597.315 1.123.579 1.578.274.455.63.82 1.067 1.092.436.263.97.394 1.599.394.579 0 1.082-.12 1.508-.364a2.923 2.923 0 0 0 1.067-1.016c.284-.434.497-.955.64-1.562a9.06 9.06 0 0 0 .213-2.032c0-.667-.066-1.3-.198-1.896a4.957 4.957 0 0 0-.594-1.592 3.061 3.061 0 0 0-1.067-1.092c-.426-.273-.949-.41-1.569-.41-.619 0-1.147.132-1.584.395a3.106 3.106 0 0 0-1.067 1.077 4.956 4.956 0 0 0-.594 1.592 9.755 9.755 0 0 0-.183 1.926ZM119.202 11.7c0 .334-.076.632-.229.895a2.09 2.09 0 0 1-.594.637 2.747 2.747 0 0 1-.853.394 3.946 3.946 0 0 1-1.996-.015 2.774 2.774 0 0 1-.837-.395 2.079 2.079 0 0 1-.579-.652 1.735 1.735 0 0 1-.214-.864c0-.293.066-.561.198-.804.143-.253.33-.47.564-.652.234-.182.513-.324.838-.425.325-.1.68-.151 1.066-.151.336 0 .661.045.975.136.325.091.61.223.853.394.244.172.437.385.579.637.153.253.229.541.229.865Zm-.229 17.668c0 .96-.198 1.698-.594 2.214-.386.515-1.031.773-1.935.773-.853 0-1.457-.258-1.812-.773-.346-.516-.518-1.254-.518-2.214v-9.282c0-.96.172-1.698.518-2.214.355-.515.959-.773 1.812-.773.904 0 1.549.258 1.935.773.396.516.594 1.254.594 2.214v9.282Zm6.998-4.688c0 .678.05 1.31.152 1.896a5.01 5.01 0 0 0 .548 1.547c.265.434.61.778 1.036 1.03.437.254.975.38 1.615.38.589 0 1.082-.121 1.478-.364a2.81 2.81 0 0 0 .975-1.031c.243-.445.416-.966.518-1.562.112-.597.167-1.244.167-1.941 0-.556-.04-1.123-.122-1.699a5.436 5.436 0 0 0-.456-1.592 3.11 3.11 0 0 0-.93-1.168c-.396-.303-.913-.455-1.554-.455-.639 0-1.183.101-1.63.303a2.55 2.55 0 0 0-1.066.925c-.264.415-.452.936-.564 1.563-.112.616-.167 1.34-.167 2.168Zm-.016-4.595a5.151 5.151 0 0 1 .975-1.41 5.98 5.98 0 0 1 2.804-1.623 6.036 6.036 0 0 1 1.568-.212c.935 0 1.779.207 2.53.621a5.914 5.914 0 0 1 1.919 1.699c.538.708.95 1.547 1.235 2.517.283.96.426 1.992.426 3.094 0 1.143-.153 2.189-.457 3.14-.294.95-.717 1.769-1.265 2.456a5.818 5.818 0 0 1-1.95 1.593c-.752.384-1.589.576-2.513.576-1.138 0-2.154-.263-3.047-.789-.894-.526-1.635-1.264-2.225-2.214v5.46c0 .96-.198 1.698-.594 2.214-.386.515-1.031.773-1.935.773-.853 0-1.457-.258-1.812-.773-.346-.516-.518-1.254-.518-2.214V20.085c0-.96.172-1.698.518-2.214.355-.516.959-.774 1.812-.774.904 0 1.549.258 1.935.774.396.516.594 1.254.594 2.214Zm16.82 1.073c0 .395.173.703.517.925.346.213.823.39 1.433.531a68.63 68.63 0 0 0 1.782.38c.61.12 1.204.262 1.783.424.578.152 1.122.334 1.63.546.507.212.954.48 1.34.804.386.313.69.697.914 1.152.224.445.335.981.335 1.608 0 .788-.162 1.491-.487 2.108a4.478 4.478 0 0 1-1.386 1.547c-.589.424-1.295.753-2.118.986-.822.232-1.731.353-2.727.363-.944 0-1.854-.06-2.727-.181a11.155 11.155 0 0 1-2.331-.531c-.67-.243-1.208-.541-1.615-.895-.405-.364-.608-.789-.608-1.274 0-.425.136-.753.411-.986.274-.232.624-.349 1.051-.349.163 0 .355.03.579.091.223.061.466.137.73.228.264.09.544.192.839.303.304.101.619.192.944.273.407.112.823.203 1.249.273.437.06.884.091 1.342.091.283 0 .562-.025.837-.076a2.98 2.98 0 0 0 .732-.257 1.75 1.75 0 0 0 .548-.455 1.31 1.31 0 0 0 .259-.668c.03-.06.056-.121.075-.182a.648.648 0 0 0 .032-.212c0-.283-.133-.536-.397-.758-.253-.223-.615-.4-1.082-.531-.782-.182-1.528-.349-2.239-.5a31.698 31.698 0 0 1-1.98-.486 12.42 12.42 0 0 1-1.646-.591 4.586 4.586 0 0 1-1.249-.82 3.49 3.49 0 0 1-.792-1.167c-.183-.455-.274-1.006-.274-1.653 0-.698.157-1.32.471-1.865.325-.556.788-1.021 1.388-1.396.599-.374 1.324-.657 2.178-.849.853-.202 1.818-.303 2.894-.303 1.929 0 3.397.232 4.403.697 1.016.455 1.524 1.052 1.524 1.79 0 .415-.138.733-.412.955a1.571 1.571 0 0 1-.99.319c-.204 0-.417-.035-.64-.106a11.57 11.57 0 0 0-.777-.258 7.344 7.344 0 0 0-1.097-.258c-.416-.08-.934-.121-1.553-.121-.468 0-.895.02-1.281.06a4.1 4.1 0 0 0-.975.213 1.557 1.557 0 0 0-.624.41c-.143.171-.213.388-.213.651Zm15.911 5.569c0 .476.061.89.183 1.244.131.354.309.652.533.895.223.232.482.41.776.53.305.112.63.168.975.168.407 0 .798-.061 1.174-.183.376-.12.706-.308.99-.56.294-.253.528-.572.701-.956.172-.384.259-.834.259-1.35v-6.43c0-.96.173-1.698.517-2.214.356-.516.961-.774 1.814-.774.903 0 1.548.258 1.934.774.397.516.594 1.254.594 2.214v9.281c0 .96-.197 1.699-.594 2.214-.386.516-1.031.774-1.934.774-.853 0-1.458-.258-1.814-.774-.344-.515-.517-1.253-.517-2.214-.213.465-.493.89-.839 1.274-.335.384-.73.718-1.188 1.001a5.824 5.824 0 0 1-1.492.637 6.447 6.447 0 0 1-1.753.228 5.62 5.62 0 0 1-1.965-.35 4.89 4.89 0 0 1-1.645-1.06 5.23 5.23 0 0 1-1.142-1.76c-.285-.698-.427-1.511-.427-2.442v-6.809c0-.96.173-1.698.518-2.214.356-.516.959-.774 1.813-.774.904 0 1.548.258 1.934.774.397.516.595 1.254.595 2.214v6.642Zm12.66-6.642c0-.96.173-1.698.518-2.214.355-.516.96-.774 1.813-.774.904 0 1.549.258 1.935.774.396.516.594 1.254.594 2.214a4.83 4.83 0 0 1 .823-1.32 5.559 5.559 0 0 1 1.203-1.03c.457-.284.95-.501 1.478-.653a5.754 5.754 0 0 1 3.199-.03 4.38 4.38 0 0 1 1.433.652c.446.293.837.667 1.172 1.122.336.455.595 1.001.778 1.638.314-.677.685-1.248 1.111-1.713.427-.466.89-.84 1.386-1.123a5.65 5.65 0 0 1 1.555-.606 7.593 7.593 0 0 1 1.644-.182c.65 0 1.271.116 1.859.348.6.233 1.122.587 1.57 1.062.457.465.817 1.057 1.081 1.774.274.708.411 1.537.411 2.488v6.854c0 .96-.198 1.699-.594 2.214-.385.516-1.031.774-1.935.774-.852 0-1.457-.258-1.812-.774-.346-.515-.518-1.253-.518-2.214v-6.642c0-.455-.062-.86-.182-1.213a2.51 2.51 0 0 0-.519-.91 1.96 1.96 0 0 0-.762-.561 2.29 2.29 0 0 0-.944-.198c-.417 0-.812.066-1.188.198a2.706 2.706 0 0 0-.991.606 3.112 3.112 0 0 0-.67 1.046c-.163.425-.243.936-.243 1.532v6.142c0 .96-.199 1.699-.595 2.214-.386.516-1.03.774-1.935.774-.853 0-1.458-.258-1.812-.774-.346-.515-.519-1.253-.519-2.214v-6.354c0-1.041-.219-1.83-.654-2.366-.428-.536-1.011-.804-1.752-.804-.437 0-.844.071-1.22.213a2.722 2.722 0 0 0-.975.622 2.974 2.974 0 0 0-.655 1.015c-.152.405-.228.87-.228 1.396v6.278c0 .96-.198 1.699-.594 2.214-.386.516-1.031.774-1.935.774-.853 0-1.458-.258-1.813-.774-.345-.515-.518-1.253-.518-2.214v-9.281ZM22.095 29.767c-4.308 0-7.8-3.477-7.8-7.765 0-4.289 3.492-7.765 7.8-7.765s7.8 3.476 7.8 7.765c0 4.288-3.492 7.765-7.8 7.765Z"/><path fill="#C8CACC" d="M6.985 24.653c-2.26.397-3.81 2.57-2.942 4.686a19.418 19.418 0 0 0 5.65 7.64 19.556 19.556 0 0 0 12.744 4.43 19.55 19.55 0 0 0 12.58-4.87 19.412 19.412 0 0 0 5.379-7.832c.793-2.144-.832-4.262-3.105-4.58-2.273-.318-4.313 1.329-5.436 3.322a11.145 11.145 0 0 1-2.345 2.893 11.217 11.217 0 0 1-7.218 2.795 11.22 11.22 0 0 1-7.312-2.542 11.15 11.15 0 0 1-2.445-2.81c-1.192-1.954-3.29-3.529-5.55-3.132Z"/><path fill="#C8CACC" d="M41.445 24.42c.1-.794.15-1.604.15-2.425 0-10.72-8.73-19.412-19.5-19.412-10.769 0-19.5 8.691-19.5 19.412 0 1.054.085 2.089.248 3.098a6.089 6.089 0 0 1 3.803-2.357c1.634-.287 3.119.107 4.374.845a11.176 11.176 0 0 1-.112-1.586c0-6.151 5.009-11.138 11.188-11.138s11.188 4.987 11.188 11.138c0 .406-.022.806-.064 1.2 1.229-.78 2.699-1.226 4.342-.996a6.091 6.091 0 0 1 3.883 2.222Z"/></svg>