<svg xmlns="http://www.w3.org/2000/svg" width="206" height="44" fill="none"><g fill="#C8CACC" clip-path="url(#a)"><path fill-rule="evenodd" d="M25.161 4.81 28.36 0l9.067 4.547-3.197 4.81c-.561.843.28 1.87 1.38 1.685l6.127-1.027 1.983 8.93-6.127 1.025c-9.91 1.66-17.477-7.567-12.43-15.16Zm-5.202 34.378-3.49 4.81-9.892-4.546 3.489-4.81c.612-.844-.304-1.87-1.507-1.686l-6.683 1.026-2.163-8.928 6.684-1.026c10.812-1.66 19.066 7.567 13.562 15.16Z" clip-rule="evenodd"/><path fill-rule="evenodd" d="M19.956 4.81 16.468 0 6.576 4.546l3.489 4.81c.61.843-.305 1.87-1.507 1.685l-6.685-1.027-2.16 8.93 6.683 1.025c10.813 1.66 19.068-7.567 13.561-15.16h-.001Zm5.207 34.378 3.196 4.81 9.068-4.546-3.198-4.81c-.56-.844.279-1.87 1.382-1.686l6.125 1.026 1.983-8.928-6.127-1.026c-9.91-1.66-17.476 7.567-12.431 15.16h.002Z" clip-rule="evenodd"/><path d="M179.684 33.168v-9.35c0-1.295.298-2.458.894-3.487.618-1.049 1.492-1.872 2.624-2.47 1.132-.595 2.479-.893 4.042-.893a7.957 7.957 0 0 1 2.161.277 6.948 6.948 0 0 1 1.79.71 5.337 5.337 0 0 1 1.42 1.049h.061a6.036 6.036 0 0 1 1.419-1.05 7.463 7.463 0 0 1 1.822-.71 8.303 8.303 0 0 1 2.191-.276c1.563 0 2.911.297 4.043.894 1.13.597 2.005 1.419 2.622 2.47.618 1.028.926 2.19.926 3.486v9.35h-4.815v-9.196c0-.513-.133-.976-.4-1.388a2.926 2.926 0 0 0-1.019-1.05 2.757 2.757 0 0 0-1.481-.4c-.556 0-1.06.133-1.512.4a2.92 2.92 0 0 0-1.018 1.05c-.25.42-.378.9-.371 1.388v9.196H190.3v-9.196c0-.513-.134-.976-.401-1.388a2.844 2.844 0 0 0-1.05-1.05 2.757 2.757 0 0 0-1.481-.4c-.556 0-1.06.133-1.512.4a2.92 2.92 0 0 0-1.018 1.05c-.249.42-.378.9-.371 1.388v9.196h-4.783Zm-10.462.371c-1.625 0-3.035-.308-4.227-.926-1.173-.638-2.078-1.492-2.716-2.56-.638-1.091-.957-2.296-.957-3.612v-9.104h4.784v8.98c0 .556.133 1.07.4 1.544.267.452.628.823 1.08 1.11a3.208 3.208 0 0 0 1.605.402c.577 0 1.09-.134 1.544-.401a3.203 3.203 0 0 0 1.111-1.111c.267-.473.401-.988.401-1.543v-8.98h4.783v9.103c0 1.317-.309 2.521-.926 3.611-.617 1.07-1.512 1.924-2.684 2.56-1.153.618-2.552.927-4.198.927Zm-23.308-.37v-3.796h7.623c.206 0 .391-.041.556-.124.164-.102.298-.236.4-.4a1.02 1.02 0 0 0 0-1.08.993.993 0 0 0-.4-.371 1.03 1.03 0 0 0-.556-.154h-2.777c-1.03 0-1.966-.165-2.809-.494a4.455 4.455 0 0 1-1.975-1.605c-.473-.74-.71-1.697-.71-2.87 0-.905.216-1.728.648-2.468a5.235 5.235 0 0 1 1.821-1.791 5.021 5.021 0 0 1 2.562-.679h7.621v3.827h-6.881a1.068 1.068 0 0 0-.74.278.918.918 0 0 0-.279.68c0 .287.094.534.279.74.202.184.467.283.74.278h2.716c1.151 0 2.139.175 2.962.523.844.33 1.492.865 1.945 1.606.473.74.709 1.697.709 2.87 0 .925-.236 1.769-.709 2.53a5.069 5.069 0 0 1-1.853 1.82c-.761.454-1.624.68-2.591.68h-8.302Zm-10.421-16.201c1.337 0 2.52.215 3.548.648a7.05 7.05 0 0 1 2.655 1.79 7.693 7.693 0 0 1 1.697 2.715c.39 1.029.586 2.17.586 3.426 0 1.563-.329 2.952-.988 4.165a7.11 7.11 0 0 1-2.653 2.808c-1.132.68-2.448 1.02-3.95 1.02a6.623 6.623 0 0 1-1.821-.247 5.85 5.85 0 0 1-1.543-.71 4.28 4.28 0 0 1-1.141-1.143h-.094v8.426h-4.783v-14.32c0-1.75.35-3.262 1.05-4.537a7.33 7.33 0 0 1 2.962-2.963c1.276-.72 2.768-1.08 4.475-1.08v.002Zm0 4.134c-.741 0-1.388.185-1.944.556-.536.35-.947.844-1.235 1.482-.287.616-.431 1.316-.431 2.097 0 .783.144 1.482.431 2.1a3.626 3.626 0 0 0 1.235 1.48c.556.35 1.203.526 1.944.526.74 0 1.378-.176 1.913-.525a3.622 3.622 0 0 0 1.235-1.482c.308-.617.462-1.316.462-2.099 0-.78-.154-1.48-.462-2.097-.288-.638-.7-1.133-1.235-1.482-.535-.37-1.173-.556-1.913-.556Zm-15.756 12.066v-15.83h4.815v15.83h-4.815Zm2.407-17.62c-.761 0-1.419-.278-1.974-.833-.556-.556-.834-1.215-.834-1.976 0-.761.278-1.419.834-1.974.555-.577 1.213-.865 1.974-.865.761 0 1.42.288 1.976.865.555.555.833 1.213.833 1.974 0 .761-.278 1.42-.833 1.976-.556.555-1.215.832-1.976.832Zm-12.87 17.991c-1.624 0-3.085-.36-4.382-1.08a8.214 8.214 0 0 1-3.086-2.962c-.74-1.256-1.111-2.665-1.111-4.229 0-1.584.371-2.993 1.111-4.227a8.214 8.214 0 0 1 3.086-2.962c1.297-.742 2.758-1.111 4.382-1.111 1.626 0 3.076.37 4.352 1.11a7.98 7.98 0 0 1 3.055 2.963c.761 1.234 1.141 2.643 1.141 4.227 0 1.564-.38 2.973-1.141 4.229a7.98 7.98 0 0 1-3.055 2.962c-1.296.72-2.747 1.08-4.352 1.08Zm0-4.166c.761 0 1.42-.186 1.976-.555a3.764 3.764 0 0 0 1.296-1.482c.309-.617.463-1.316.463-2.099 0-.76-.154-1.45-.463-2.068a3.77 3.77 0 0 0-1.296-1.48c-.556-.37-1.215-.556-1.976-.556-.761 0-1.43.185-2.005.556a3.768 3.768 0 0 0-1.297 1.482 4.557 4.557 0 0 0-.462 2.067c0 .782.154 1.481.462 2.098.294.6.741 1.112 1.297 1.482.575.37 1.244.555 2.005.555ZM85.15 39.434v-4.105h7.9c.308 0 .566-.102.772-.308a.913.913 0 0 0 .307-.71v-3.488h-.092c-.39.455-.836.859-1.327 1.204-.453.33-.967.576-1.543.741a6.621 6.621 0 0 1-1.882.246c-1.4 0-2.654-.33-3.765-.987-1.09-.68-1.955-1.615-2.593-2.809-.616-1.192-.925-2.55-.925-4.073 0-1.502.319-2.87.957-4.104.658-1.234 1.615-2.222 2.87-2.962 1.254-.742 2.787-1.111 4.598-1.111 1.728 0 3.22.36 4.475 1.08a7.287 7.287 0 0 1 2.962 2.992c.7 1.276 1.05 2.778 1.05 4.507v9.257c0 1.42-.422 2.541-1.266 3.364-.822.844-1.964 1.265-3.425 1.265l-9.073.001Zm5.308-10.431c.74 0 1.378-.165 1.914-.494a3.499 3.499 0 0 0 1.233-1.388 4.23 4.23 0 0 0 .432-1.914c0-.74-.143-1.42-.431-2.037a3.413 3.413 0 0 0-1.235-1.45c-.535-.371-1.173-.556-1.914-.556-.72 0-1.358.175-1.913.525-.535.35-.946.823-1.234 1.419-.288.597-.432 1.265-.432 2.006 0 .72.143 1.378.431 1.976a3.5 3.5 0 0 0 1.236 1.388c.554.35 1.192.525 1.913.525Zm-18.179 4.536c-1.625 0-3.085-.36-4.381-1.08a8.205 8.205 0 0 1-3.087-2.962c-.74-1.256-1.11-2.665-1.11-4.229 0-1.584.37-2.993 1.11-4.227a8.207 8.207 0 0 1 3.087-2.962c1.296-.742 2.756-1.111 4.381-1.111 1.626 0 3.076.37 4.352 1.11a7.979 7.979 0 0 1 3.054 2.963c.762 1.234 1.142 2.643 1.142 4.227 0 1.564-.38 2.973-1.142 4.229a7.978 7.978 0 0 1-3.054 2.962c-1.296.72-2.747 1.08-4.352 1.08Zm0-4.166c.761 0 1.42-.186 1.976-.555a3.773 3.773 0 0 0 1.296-1.482c.308-.617.462-1.316.462-2.099 0-.76-.154-1.45-.463-2.068a3.77 3.77 0 0 0-1.295-1.48c-.556-.37-1.215-.556-1.976-.556-.761 0-1.43.185-2.005.556a3.771 3.771 0 0 0-1.297 1.482 4.558 4.558 0 0 0-.462 2.067c0 .782.154 1.481.462 2.098.293.6.74 1.112 1.297 1.482.575.37 1.244.555 2.005.555Zm-15.318 3.795c-1.338 0-2.51-.297-3.518-.894a6.338 6.338 0 0 1-2.346-2.376c-.555-.988-.833-2.079-.833-3.271v-15.06h5.184v15.43c0 .494.176.925.525 1.296.35.37.78.556 1.296.556h5.709v4.32H56.96Z"/></g><defs><clipPath id="a"><path fill="#fff" d="M.25 0h205.7v44H.25z"/></clipPath></defs></svg>