<svg xmlns="http://www.w3.org/2000/svg" width="175" height="40" fill="none"><path fill="#C8CACC" d="M51.322 28.608v-16.3a1 1 0 0 1 1-1h1.86c.336 0 .652.168.836.452l8.408 12.772c.108.164.368.088.368-.108V12.312a1 1 0 0 1 1-1h1.136a1 1 0 0 1 1 1v16.3a1 1 0 0 1-1 1h-1.86a.995.995 0 0 1-.836-.452l-8.408-12.772c-.108-.164-.368-.088-.368.108v12.112a1 1 0 0 1-1 1h-1.136a1 1 0 0 1-1-1Zm17.164-5.856c-.008-4.588 3-7.42 6.876-7.42 3.876 0 6.536 2.744 6.616 7.24a.732.732 0 0 1-.732.732h-9.448a.2.2 0 0 0-.2.224c.28 2.308 1.776 3.856 4.056 3.856 1.368 0 2.448-.576 3.024-1.616.184-.332.516-.556.896-.556h.944c.736 0 1.228.772.904 1.432-1.032 2.116-3.092 3.352-5.796 3.352-3.94 0-7.128-3.308-7.136-7.248l-.004.004Zm10.052-1.616c.128 0 .228-.12.196-.248-.444-1.84-1.644-2.944-3.372-2.944s-3.072 1.1-3.592 2.936a.204.204 0 0 0 .196.256h6.572Zm5.216 3.792v-8.176a1 1 0 0 1 1-1h1.084a1 1 0 0 1 1 1v8.044c0 1.568 1.1 2.484 2.744 2.484 2.116 0 3.372-1.384 3.4-3.164v-7.364a1 1 0 0 1 1-1h1.084a1 1 0 0 1 1 1v12.856h-1.592a.996.996 0 0 1-.992-.884l-.132-1.128C92.538 29.088 90.894 30 88.958 30c-3.296 0-5.204-2.064-5.204-5.072Zm14.265 3.68V15.752h1.608c.5 0 .924.372.992.868l.248 1.852c1.42-3.004 4.492-2.944 5.192-2.892a.16.16 0 0 1 .144.156v2.696c0 .088-.072.16-.16.156-.868-.044-4.936-.024-4.936 4.168v5.848a1 1 0 0 1-1 1h-1.084a1 1 0 0 1-1-1l-.004.004Zm8.515-2.844c.024-3.24 3.24-3.92 5.936-4.236 2.092-.236 3.636-.312 3.66-1.412-.024-1.36-1.072-2.248-2.848-2.248-1.776 0-3.036.916-3.292 2.264-.02.096-.096.168-.192.168h-2.716c-.12 0-.22-.108-.2-.228.396-2.804 2.968-4.74 6.456-4.74 3.74 0 5.804 2.04 5.804 4.992V26.6c0 .392.208.6.68.6.42 0 .76.34.76.76v.888c0 .42-.34.76-.76.76h-.704c-1.412 0-2.276-.576-2.508-1.62a2.615 2.615 0 0 1-.132-.472c-.812 1.492-2.328 2.38-4.68 2.38-3.188 0-5.28-1.544-5.256-4.132h-.008Zm9.592-1.36v-1.936c-.524.812-1.856.992-3.32 1.176-1.724.208-3.164.444-3.164 1.908 0 1.204.968 1.908 2.772 1.908 2.116 0 3.712-1.204 3.712-3.06v.004Zm5.632 4.204v-16.3a1 1 0 0 1 1-1h10.968a1 1 0 0 1 1 1v.824a1 1 0 0 1-1 1h-8.632c-.112 0-.2.088-.2.2v4.644c0 .112.088.2.2.2h7.924a1 1 0 0 1 1 1V21a1 1 0 0 1-1 1h-7.924c-.112 0-.2.088-.2.2v6.408a1 1 0 0 1-1 1h-1.136a1 1 0 0 1-1-1Zm14.285 0V11a1 1 0 0 1 1-1h1.084a1 1 0 0 1 1 1v17.608a1 1 0 0 1-1 1h-1.084a1 1 0 0 1-1-1Zm4.743-6.06c0-4.524 3.06-7.216 7.112-7.216 4.472 0 7.084 3.136 7.084 7.216 0 4.68-2.956 7.452-7.084 7.452-4.496 0-7.112-3.164-7.112-7.452Zm11.06 0c0-2.744-1.544-4.576-3.948-4.576s-3.972 1.832-3.972 4.576c0 3.032 1.7 4.812 3.972 4.812 2.484 0 3.948-2.04 3.948-4.812Zm7.176 6.344-3.512-11.856a1.002 1.002 0 0 1 .96-1.284h1.064c.448 0 .844.3.964.732l2.4 8.608c.056.196.332.196.384 0l2.352-8.604a.997.997 0 0 1 .964-.736h1.04c.448 0 .844.3.964.732l2.372 8.508c.056.196.332.196.384 0l2.352-8.508c.12-.432.516-.732.964-.732h1.064c.668 0 1.148.644.96 1.284l-3.512 11.856a1 1 0 0 1-.96.716h-1.684c-.448 0-.84-.296-.964-.728l-2.268-8.048c-.056-.196-.332-.196-.384 0l-2.244 8.044c-.12.432-.516.732-.964.732h-1.736c-.444 0-.832-.292-.96-.716Z"/><path fill="#344250" d="M11.678 21.684H7.843a7.24 7.24 0 0 0-7.24 7.24v3.836A7.24 7.24 0 0 0 7.843 40h3.835a7.24 7.24 0 0 0 7.24-7.24v-3.836a7.24 7.24 0 0 0-7.24-7.24ZM33.363 0h-3.836a7.24 7.24 0 0 0-7.24 7.24v3.836a7.24 7.24 0 0 0 7.24 7.24h3.836a7.24 7.24 0 0 0 7.24-7.24V7.24A7.24 7.24 0 0 0 33.363 0Z"/><path fill="url(#a)" d="M40.595 30.512A9.158 9.158 0 0 1 31.163 40c-4.796-.144-8.712-4.04-8.872-8.836a9.223 9.223 0 0 1 .008-.816 11.574 11.574 0 0 0-3.084-8.488c-.08-.084-.156-.164-.232-.24a11.59 11.59 0 0 0-8.728-3.316 9.058 9.058 0 0 1-.808.008C4.65 18.152.75 14.24.607 9.444c-.16-5.296 4.176-9.62 9.472-9.44 4.788.164 8.684 4.068 8.836 8.856.008.26.004.516-.008.772a11.63 11.63 0 0 0 3.084 8.508c.08.084.156.168.232.24a11.65 11.65 0 0 0 8.752 3.312c.252-.012.504-.016.76-.008 4.788.148 8.692 4.036 8.864 8.824l-.004.004Z"/><defs><linearGradient id="a" x1=".603" x2="40.603" y1="20" y2="20" gradientUnits="userSpaceOnUse"><stop stop-color="#0883FD"/><stop offset="1" stop-color="#8CD1FB"/></linearGradient></defs></svg>