<svg xmlns="http://www.w3.org/2000/svg" width="207" height="44" fill="none"><path fill="#C8CACC" d="M33.884 19.61a5.362 5.362 0 0 0-1.537 4.295l-.026-.026a6.359 6.359 0 0 1-1.847 5.041 6.381 6.381 0 0 1-5.05 1.843l.026.027a5.413 5.413 0 0 0-3.184.689 5.397 5.397 0 0 0-2.64 5.613 5.392 5.392 0 0 0 1.504 2.885 5.407 5.407 0 0 0 6.12 1.065 5.387 5.387 0 0 0 3.08-5.386l.028.027a6.361 6.361 0 0 1 1.847-5.041 6.384 6.384 0 0 1 5.05-1.844l-.028-.026a5.403 5.403 0 0 0 4.758-2.08 5.378 5.378 0 0 0-3.112-8.54 5.404 5.404 0 0 0-4.985 1.457h-.004Zm-10.821 7.722-.028-.026a5.344 5.344 0 0 0 4.306-1.532 5.323 5.323 0 0 0 1.538-4.297l.027.026a6.36 6.36 0 0 1 1.847-5.04 6.385 6.385 0 0 1 5.05-1.844l-.028-.026a5.411 5.411 0 0 0 5.396-3.076 5.386 5.386 0 0 0-1.07-6.11 5.407 5.407 0 0 0-6.12-1.067A5.386 5.386 0 0 0 30.9 9.726l-.026-.028a6.362 6.362 0 0 1-1.846 5.042 6.385 6.385 0 0 1-5.051 1.843l.026.028a5.344 5.344 0 0 0-4.305 1.531 5.324 5.324 0 0 0-1.538 4.297l-.026-.026a6.364 6.364 0 0 1-1.848 5.04 6.387 6.387 0 0 1-5.05 1.844l.027.027a5.412 5.412 0 0 0-5.395 3.075 5.386 5.386 0 0 0 1.069 6.11 5.406 5.406 0 0 0 6.12 1.067 5.4 5.4 0 0 0 2.394-2.207 5.386 5.386 0 0 0 .687-3.179l.028.027a6.36 6.36 0 0 1 1.847-5.041 6.381 6.381 0 0 1 5.05-1.844Z"/><path fill="#C8CACC" d="M13.21 24.388a5.354 5.354 0 0 0 1.536-4.296l.028.026a6.361 6.361 0 0 1 1.848-5.042 6.384 6.384 0 0 1 5.052-1.842l-.028-.027a5.41 5.41 0 0 0 5.393-3.075 5.385 5.385 0 0 0-1.069-6.107 5.406 5.406 0 0 0-6.118-1.068 5.398 5.398 0 0 0-2.393 2.206 5.384 5.384 0 0 0-.688 3.178l-.027-.026a6.359 6.359 0 0 1-1.846 5.04 6.383 6.383 0 0 1-5.05 1.844l.026.027a5.403 5.403 0 0 0-4.757 2.08 5.378 5.378 0 0 0 3.113 8.54 5.405 5.405 0 0 0 4.984-1.458h-.003ZM58.717 9.759h4.364v21.198h-4.364V9.759Zm6.84 13.94a7.687 7.687 0 0 1 1.285-4.284 7.722 7.722 0 0 1 11.865-1.2 7.692 7.692 0 0 1 1.685 8.39 7.697 7.697 0 0 1-2.839 3.46 7.72 7.72 0 0 1-4.286 1.299 7.634 7.634 0 0 1-5.466-2.218 7.606 7.606 0 0 1-2.244-5.447Zm11.055 0a3.339 3.339 0 0 0-2.129-3.02 3.353 3.353 0 0 0-3.616.783 3.338 3.338 0 0 0 2.4 5.67 3.269 3.269 0 0 0 3.142-2.113 3.25 3.25 0 0 0 .203-1.32Zm21.76-7.257V30.23c0 4.878-3.812 6.94-7.68 6.94a7.433 7.433 0 0 1-6.894-3.52l3.722-2.15a3.32 3.32 0 0 0 3.316 1.83 2.906 2.906 0 0 0 2.391-.766 2.893 2.893 0 0 0 .896-2.341v-1.327a5.166 5.166 0 0 1-4.248 1.887 7.398 7.398 0 0 1-5.075-2.24 7.372 7.372 0 0 1 0-10.27 7.398 7.398 0 0 1 5.075-2.24 5.175 5.175 0 0 1 4.248 1.888v-1.482l4.248.003Zm-4.247 6.968a3.515 3.515 0 0 0-2.073-3.355 3.531 3.531 0 0 0-3.892.67 3.519 3.519 0 0 0-.828 3.855 3.522 3.522 0 0 0 3.275 2.204 3.298 3.298 0 0 0 2.508-.908 3.284 3.284 0 0 0 1.01-2.466Zm6.706.289a7.69 7.69 0 0 1 4.737-7.132 7.724 7.724 0 0 1 8.412 1.648 7.686 7.686 0 0 1-1.154 11.85 7.717 7.717 0 0 1-4.286 1.299 7.637 7.637 0 0 1-5.466-2.218 7.603 7.603 0 0 1-2.243-5.447Zm11.055 0a3.342 3.342 0 0 0-4.056-3.173 3.343 3.343 0 0 0-2.373 4.565 3.343 3.343 0 0 0 3.083 2.041 3.27 3.27 0 0 0 2.426-.985 3.245 3.245 0 0 0 .92-2.448Zm6.409-11.155a2.609 2.609 0 0 1 1.617-2.414 2.623 2.623 0 0 1 2.853.566 2.614 2.614 0 0 1 .568 2.849 2.619 2.619 0 0 1-2.419 1.613 2.645 2.645 0 0 1-2.619-2.614Zm.441 3.892h4.365v14.52h-4.371l.006-14.52Zm23.193 7.265a7.284 7.284 0 0 1-1.88 5.276 7.297 7.297 0 0 1-5.073 2.39 5.47 5.47 0 0 1-4.332-1.773v7.174h-4.364V16.442h4.364v1.363a5.455 5.455 0 0 1 4.332-1.77 7.317 7.317 0 0 1 5.075 2.39 7.281 7.281 0 0 1 1.878 5.277Zm-4.364 0a3.449 3.449 0 0 0-2.196-3.13 3.466 3.466 0 0 0-3.742.804 3.446 3.446 0 0 0-.712 3.756 3.463 3.463 0 0 0 3.19 2.113 3.33 3.33 0 0 0 2.525-.998 3.31 3.31 0 0 0 .935-2.544Zm17.839 2.901c0 3.34-2.908 4.763-6.049 4.763a6.378 6.378 0 0 1-6.255-3.456l3.781-2.148a2.387 2.387 0 0 0 2.468 1.713c1.046 0 1.571-.32 1.571-.9 0-1.598-7.157-.755-7.157-5.778 0-3.167 2.677-4.762 5.702-4.762a6.366 6.366 0 0 1 5.671 3.106l-3.723 2.004a2.11 2.11 0 0 0-1.948-1.278c-.757 0-1.222.293-1.222.813.005 1.655 7.161.551 7.161 5.924ZM171.34 16.44v14.52h-4.364v-1.366a4.974 4.974 0 0 1-4.158 1.771c-2.939 0-5.437-2.09-5.437-6.013V16.44h4.364v8.275a2.394 2.394 0 0 0 2.53 2.64c1.6 0 2.705-.928 2.705-2.99v-7.92l4.36-.005Zm25.027 5.607v8.915h-4.364v-8.538c0-1.451-.698-2.38-2.094-2.38-1.454 0-2.27 1.017-2.27 2.73v8.188h-4.362v-8.538c0-1.451-.698-2.38-2.095-2.38-1.455 0-2.269 1.017-2.269 2.73v8.188h-4.364v-14.52h4.364v1.335a4.472 4.472 0 0 1 3.898-1.741 4.334 4.334 0 0 1 3.81 1.915 4.797 4.797 0 0 1 4.218-1.915c3.34.001 5.528 2.381 5.528 6.011Zm3.702-5.696a3.235 3.235 0 0 0 3.238-3.232 3.235 3.235 0 0 0-3.238-3.233 3.235 3.235 0 0 0-3.238 3.232 3.235 3.235 0 0 0 3.238 3.233Z"/></svg>